#!OML:ASF H:\BabyWalks\Project 1\Capture day 1\Session 1\baby.ASF
:FULLY-SPECIFIED
:DEGREES
1023
root 42.5121 17.6365 0.683491 -314.385 94.6266 -318.104
lowerback 23.0487 -0.736221 -0.668844
upperback 5.30536 -0.747023 -0.344116
thorax -7.01869 -0.18535 0.200272
lowerneck -1.82274 0.95674 4.22094
upperneck -6.44917 1.18425 -3.56524
head -1.66678 0.597074 -1.8616
rclavicle -1.23246e-014 7.95139e-016
rhumerus -50.1699 17.1763 -90.2744
rradius 47.5628
rwrist -2.93856
rhand -7.00351 -19.5104
rfingers 7.12502
rthumb 18.8674 -48.6154
lclavicle -1.23246e-014 7.95139e-016
lhumerus -40.0826 -19.3323 77.8283
lradius 71.1354
lwrist -0.0772442
lhand -11.4633 0.482685
lfingers 7.12502
lthumb 14.5741 29.9507
rfemur -24.624 8.1538 19.6381
rtibia 28.9726
rfoot -14.6148 8.42877
rtoes -5.5822
lfemur -20.8039 0.389661 -15.4689
ltibia 42.3879
lfoot -17.7511 -13.1617
ltoes -5.83704
1024
root 42.6299 17.644 0.702786 -321.488 95.0325 -325.311
lowerback 22.9892 -0.787361 -0.543882
upperback 5.29295 -0.77237 -0.222551
thorax -7.00161 -0.198375 0.267621
lowerneck -1.78102 0.725689 4.24198
upperneck -6.45981 0.859932 -3.90371
head -1.69168 0.440949 -1.97493
rclavicle -1.31198e-014 1.59028e-015
rhumerus -50.7359 17.2393 -90.2418
rradius 47.7856
rwrist -3.04071
rhand -6.17261 -19.7244
rfingers 7.12502
rthumb 19.6664 -48.7496
lclavicle -1.31198e-014 1.59028e-015
lhumerus -39.7051 -19.9661 77.9048
lradius 72.6159
lwrist 0.514666
lhand -11.3639 -0.090406
lfingers 7.12502
lthumb 14.6699 29.3706
rfemur -24.9084 8.43253 19.2649
rtibia 27.4093
rfoot -13.7733 7.95985
rtoes -5.78433
lfemur -20.8708 0.237002 -15.5744
ltibia 42.7897
lfoot -17.4201 -13.8687
ltoes -5.84725
1025
root 42.747 17.645 0.722487 -327.873 95.5501 -331.77
lowerback 22.9603 -0.84662 -0.403184
upperback 5.27852 -0.803454 -0.0934043
thorax -7.00262 -0.213917 0.335988
lowerneck -1.7475 0.484365 4.25118
upperneck -6.42948 0.521597 -4.25001
head -1.70398 0.2782 -2.08837
rclavicle 4.96962e-015 2.78299e-015
rhumerus -51.3286 17.2961 -90.1917
rradius 48.0415
rwrist -3.14946
rhand -5.44645 -19.8601
rfingers 7.12502
rthumb 20.3644 -48.8124
lclavicle 4.96962e-015 2.78299e-015
lhumerus -39.2922 -20.5749 77.9569
lradius 73.9546
lwrist 0.960065
lhand -11.2078 -0.631037
lfingers 7.12502
lthumb 14.8203 28.819
rfemur -25.1347 8.63559 18.882
rtibia 26.0969
rfoot -12.8507 7.39316
rtoes -5.71148
lfemur -20.9765 0.152879 -15.6781
ltibia 43.2835
lfoot -17.0625 -14.7172
ltoes -5.7064
1026
root 42.8637 17.6399 0.742733 -333.5 96.1666 -337.431
lowerback 22.9648 -0.913052 -0.255108
upperback 5.26702 -0.840607 0.0394313
thorax -7.01769 -0.231855 0.4061
lowerneck -1.72585 0.233231 4.23915
upperneck -6.36439 0.170747 -4.59317
head -1.70492 0.109505 -2.19669
rclavicle 6.55989e-015 1.59028e-015
rhumerus -51.9444 17.3502 -90.1287
rradius 48.3277
rwrist -3.27012
rhand -4.83201 -19.9046
rfingers 7.12502
rthumb 20.9548 -48.7927
lclavicle 6.55989e-015 1.59028e-015
lhumerus -38.8457 -21.1511 77.9831
lradius 75.1471
lwrist 1.26399
lhand -11.0162 -1.10832
lfingers 7.12502
lthumb 15.0049 28.328
rfemur -25.3043 8.7528 18.4958
rtibia 25.0653
rfoot -11.823 6.76532
rtoes -5.38778
lfemur -21.1113 0.139536 -15.7834
ltibia 43.8762
lfoot -16.6674 -15.7118
ltoes -5.42358
1027
root 42.9792 17.6279 0.764098 -338.428 96.8715 -342.348
lowerback 23.0117 -0.986518 -0.11271
upperback 5.25917 -0.886436 0.172943
thorax -7.05046 -0.253139 0.483098
lowerneck -1.71372 -0.024441 4.20647
upperneck -6.27774 -0.187586 -4.9265
head -1.69876 -0.0627496 -2.29797
rclavicle -2.78299e-015 1.27222e-014
rhumerus -52.5768 17.4125 -90.0628
rradius 48.6392
rwrist -3.41106
rhand -4.30941 -19.873
rfingers 7.12502
rthumb 21.4568 -48.7047
lclavicle -2.78299e-015 1.27222e-014
lhumerus -38.3728 -21.6809 77.9788
lradius 76.2006
lwrist 1.45818
lhand -10.7959 -1.49614
lfingers 7.12502
lthumb 15.2171 27.9242
rfemur -25.4038 8.78401 18.1106
rtibia 24.3182
rfoot -10.6038 6.13197
rtoes -4.46615
lfemur -21.2718 0.193111 -15.8895
ltibia 44.5642
lfoot -16.2099 -16.8609
ltoes -4.98588
1028
root 43.0939 17.6083 0.786874 -342.709 97.6555 -346.568
lowerback 23.0967 -1.06523 0.0219677
upperback 5.25684 -0.938786 0.306327
thorax -7.09663 -0.276677 0.566762
lowerneck -1.69799 -0.289415 4.14994
upperneck -6.18324 -0.55398 -5.24806
head -1.6921 -0.238647 -2.39113
rclavicle 2.65378e-014 1.98785e-015
rhumerus -53.2252 17.482 -89.9966
rradius 48.9703
rwrist -3.5774
rhand -3.87324 -19.7802
rfingers 7.12502
rthumb 21.8757 -48.5635
lclavicle 2.65378e-014 1.98785e-015
lhumerus -37.8862 -22.1581 77.9455
lradius 77.1255
lwrist 1.56564
lhand -10.5377 -1.78024
lfingers 7.12502
lthumb 15.4658 27.6211
rfemur -25.4279 8.71644 17.7451
rtibia 23.8753
rfoot -9.23358 5.55049
rtoes -3.04972
lfemur -21.4486 0.302968 -15.9894
ltibia 45.3342
lfoot -15.6628 -18.163
ltoes -4.39979
1029
root 43.2069 17.5812 0.811742 -346.421 98.5019 -350.167
lowerback 23.2243 -1.14726 0.133325
upperback 5.26456 -0.998311 0.438033
thorax -7.15315 -0.302366 0.664696
lowerneck -1.68612 -0.555512 4.07712
upperneck -6.09438 -0.920357 -5.55476
head -1.68743 -0.414288 -2.47657
rclavicle 4.51738e-014 -1.0138e-014
rhumerus -53.8696 17.5678 -89.937
rradius 49.311
rwrist -3.77193
rhand -3.51075 -19.6439
rfingers 7.12502
rthumb 22.2237 -48.3862
lclavicle 4.51738e-014 -1.0138e-014
lhumerus -37.3952 -22.5765 77.884
lradius 77.9369
lwrist 1.68188
lhand -10.2769 -1.94741
lfingers 7.12502
lthumb 15.7169 27.4344
rfemur -25.3771 8.53452 17.4217
rtibia 23.7591
rfoot -7.93036 5.06886
rtoes -1.40369
lfemur -21.6371 0.458894 -16.0761
ltibia 46.1705
lfoot -15.0013 -19.6015
ltoes -3.70022
1030
root 43.3175 17.5493 0.839059 -349.649 99.4013 -353.228
lowerback 23.3971 -1.23273 0.219151
upperback 5.28525 -1.06538 0.565981
thorax -7.21807 -0.330203 0.7762
lowerneck -1.6663 -0.819457 3.99392
upperneck -6.03803 -1.28261 -5.84257
head -1.69514 -0.587329 -2.55421
rclavicle 6.68413e-015 1.41634e-014
rhumerus -54.4934 17.671 -89.8893
rradius 49.6465
rwrist -3.99955
rhand -3.21922 -19.492
rfingers 7.12502
rthumb 22.5036 -48.2007
lclavicle 6.68413e-015 1.41634e-014
lhumerus -36.9065 -22.932 77.7919
lradius 78.6484
lwrist 1.84114
lhand -10.0134 -1.99119
lfingers 7.12502
lthumb 15.9707 27.3704
rfemur -25.2645 8.26729 17.1376
rtibia 23.9893
rfoot -6.77475 4.69966
rtoes 0.48028
lfemur -21.8271 0.646737 -16.147
ltibia 47.0501
lfoot -14.2217 -21.1389
ltoes -3.03375
1031
root 43.4248 17.5142 0.869001 -352.483 100.334 -355.842
lowerback 23.6172 -1.31779 0.271883
upperback 5.3216 -1.13671 0.688046
thorax -7.28918 -0.358362 0.902533
lowerneck -1.6135 -1.07772 3.91212
upperneck -6.0502 -1.63713 -6.11616
head -1.73125 -0.75518 -2.62796
rclavicle -6.72141e-015 3.34207e-015
rhumerus -55.0785 17.7846 -89.8522
rradius 49.961
rwrist -4.25382
rhand -2.98866 -19.3439
rfingers 7.12502
rthumb 22.7248 -48.0256
lclavicle -6.72141e-015 3.34207e-015
lhumerus -36.4256 -23.2101 77.6723
lradius 79.2608
lwrist 2.03414
lhand -9.74632 -1.93168
lfingers 7.12502
lthumb 16.2279 27.4091
rfemur -25.1235 7.93142 16.894
rtibia 24.5724
rfoot -5.92505 4.42726
rtoes 2.15126
lfemur -22.0107 0.842144 -16.2007
ltibia 47.9511
lfoot -13.303 -22.7231
ltoes -2.42938
1032
root 43.528 17.4775 0.901717 -354.939 101.287 -358.028
lowerback 23.8886 -1.40303 0.29551
upperback 5.37569 -1.2115 0.807481
thorax -7.36596 -0.386353 1.04498
lowerneck -1.49076 -1.32699 3.82931
upperneck -6.18056 -1.98076 -6.36829
head -1.81819 -0.914767 -2.69501
rclavicle -1.1778e-014 -1.72943e-014
rhumerus -55.5981 17.9036 -89.82
rradius 50.2293
rwrist -4.52776
rhand -2.81783 -19.2064
rfingers 7.12502
rthumb 22.8888 -47.8679
lclavicle -1.1778e-014 -1.72943e-014
lhumerus -35.9616 -23.3951 77.5343
lradius 79.7707
lwrist 2.25692
lhand -9.49091 -1.80437
lfingers 7.12502
lthumb 16.4738 27.5162
rfemur -24.9659 7.55353 16.6984
rtibia 25.4774
rfoot -5.49737 4.20688
rtoes 3.54245
lfemur -22.1862 1.02008 -16.2244
ltibia 48.8619
lfoot -12.285 -24.2931
ltoes -2.00455
